<?xml version="1.0" encoding="UTF-8"?>
<!--
SPDX-FileCopyrightText: 2021 Romain Vigier <contact AT romainvigier.fr>
SPDX-License-Identifier: CC-BY-SA-4.0
-->
<svg width="64" height="64" version="1.1" viewBox="0 0 64 64" xmlns="http://www.w3.org/2000/svg">
 <rect width="64" height="64" fill="#813d9c" fill-rule="evenodd"/>
 <g transform="matrix(.61624 0 0 .61624 12.256 11.826)" fill="none" stroke="#fff" stroke-linecap="round" stroke-linejoin="round" stroke-width="4.3801">
  <path d="m27.436 30.165c6.7955 17.806 21.339 26.584 21.339 26.584"/>
  <path d="m39.025 60.942c-13.279-12.721-28.948-35.841-13.927-39.587 12.74-3.1773 8.3516 16.544 29.899 29.101"/>
  <path d="m28.212 61.478c-19.876-18.871-22.883-39.437-9.8283-46.164 24.846-12.803 24.16 20.272 41.166 28.286"/>
  <path d="m12.522 55.379c-7.8612-9.9308-19.982-38.193 3.3534-48.266 30.822-13.305 34.138 19.876 45.923 25.768"/>
 </g>
</svg>
