<?xml version="1.0" encoding="UTF-8"?>
<!--
SPDX-FileCopyrightText: 2020 Romain Vigier <contact AT romainvigier.fr>
SPDX-License-Identifier: CC-BY-SA-4.0
-->
<svg width="16" height="16" version="1.1" viewBox="0 0 16 16" xmlns="http://www.w3.org/2000/svg"><path d="m4.4648 3.4629c-0.25562 0-0.51116 0.099053-0.70703 0.29492-0.39174 0.39174-0.39174 1.0223 0 1.4141l2.8281 2.8281-2.8281 2.8281c-0.39174 0.39174-0.39174 1.0223 0 1.4141 0.39174 0.39174 1.0223 0.39174 1.4141 0l2.8281-2.8281 2.8281 2.8281c0.39174 0.39174 1.0223 0.39174 1.4141 0 0.39174-0.39174 0.39174-1.0223 0-1.4141l-2.8281-2.8281 2.8281-2.8281c0.39174-0.39174 0.39174-1.0223 0-1.4141-0.39174-0.39174-1.0223-0.39174-1.4141 0l-2.8281 2.8281-2.8281-2.8281c-0.19587-0.19587-0.45141-0.29492-0.70703-0.29492z"/></svg>
