<?xml version="1.0" encoding="UTF-8"?>
<!--
SPDX-FileCopyrightText: Metadata Cleaner contributors
SPDX-License-Identifier: CC-BY-SA-4.0
-->
<svg width="16" height="16" version="1.1" viewBox="0 0 16 16" xmlns="http://www.w3.org/2000/svg">
 <path d="m12 7h-1c-0.25781 0-0.53125 0.12891-0.71875 0.3125l-1.2812 1.2812v-8.5938h-2v8.5938l-1.2812-1.2812c-0.19141-0.18359-0.46094-0.3125-0.71875-0.3125h-1v1c0 0.30859 0.089844 0.55078 0.28125 0.75l3.7188 3.6562 3.7188-3.6562c0.19141-0.19922 0.28125-0.44141 0.28125-0.75z"/>
 <path d="m1 9a1 1 0 0 0-1 1v5a1.0001 1.0001 0 0 0 1 1h14a1.0001 1.0001 0 0 0 1-1v-5a1 1 0 0 0-1-1 1 1 0 0 0-1 1v4h-12v-4a1 1 0 0 0-1-1z"/>
</svg>
